# xmcd
#
# Track frame offsets:
# 150
# 12525
# 24825
# 37200
#
# Disc length: 654 seconds
#
#
# Revision: 0
# Processed by: cddbd v1.5.1PL2 Copyright (c) Steve Scherf et al.
# Submitted via: KELLER's_Musik_Katalog 2006 
#
DISCID=2a028c04
DTITLE=Roger Cicero - so geil berlin
DYEAR=0004
DGENRE=bigband - Ihr aktuelles Genre ist 
TTITLE0=Roger Cicero - so geil berlin
TTITLE1=Roger Cicero - so geil berlin (Instrumental Version)
TTITLE2=Roger Cicero - so geil berlin (Karaoke Version)
TTITLE3=Roger Cicero - Schön Dass Du Da bist
EXTD=\n\n Für freedb bereitgestelt von:\n    KELLER'S Musik-Katalog 2006 2006
EXTT0=
EXTT1=
EXTT2=
EXTT3=
PLAYORDER=
